<?xml version="1.0" encoding="utf-8"?>
<!-- Generator: Adobe Illustrator 16.0.3, SVG Export Plug-In . SVG Version: 6.00 Build 0)  -->
<!DOCTYPE svg PUBLIC "-//W3C//DTD SVG 1.1//EN" "http://www.w3.org/Graphics/SVG/1.1/DTD/svg11.dtd">
<svg version="1.1" id="レイヤー_2" xmlns="http://www.w3.org/2000/svg" xmlns:xlink="http://www.w3.org/1999/xlink" x="0px"
	 y="0px" width="170.016px" height="44.461px" viewBox="0 0 170.016 44.461" enable-background="new 0 0 170.016 44.461"
	 xml:space="preserve">
<g>
	<path d="M0,9.469h10.065l5.134,16.57l4.768-16.57h9.4l-9.875,26.595c-1.125,3.034-2.273,5.082-3.444,6.145
		c-1.655,1.501-4.178,2.252-7.567,2.252c-1.375,0-3.499-0.188-6.373-0.563l-0.749-6.656c1.374,0.438,2.904,0.656,4.59,0.656
		c1.124,0,2.033-0.258,2.728-0.774c0.695-0.517,1.284-1.439,1.769-2.769L0,9.469z"/>
	<path d="M30.891,21.984c0-3.797,1.281-6.926,3.844-9.387s6.023-3.691,10.383-3.691c4.984,0,8.75,1.445,11.297,4.336
		c2.047,2.328,3.07,5.195,3.07,8.602c0,3.828-1.27,6.965-3.809,9.41s-6.051,3.668-10.535,3.668c-4,0-7.234-1.016-9.703-3.047
		C32.406,29.359,30.891,26.063,30.891,21.984z M40.453,21.961c0,2.219,0.449,3.859,1.348,4.922s2.027,1.594,3.387,1.594
		c1.375,0,2.504-0.523,3.387-1.57s1.324-2.727,1.324-5.039c0-2.156-0.445-3.762-1.336-4.816s-1.992-1.582-3.305-1.582
		c-1.391,0-2.539,0.535-3.445,1.605S40.453,19.773,40.453,21.961z"/>
	<path d="M64.078,9.469h8.883v4.055c1.328-1.656,2.672-2.84,4.031-3.551s3.016-1.066,4.969-1.066c2.641,0,4.707,0.785,6.199,2.355
		s2.238,3.996,2.238,7.277v15.82h-9.586V20.672c0-1.563-0.289-2.668-0.867-3.316s-1.391-0.973-2.438-0.973
		c-1.156,0-2.094,0.438-2.813,1.313s-1.078,2.445-1.078,4.711v11.953h-9.539V9.469z"/>
	<path d="M96.094,0h9.75v17.735l7.125-8.267h11.742l-8.929,8.719l9.445,16.171h-10.748l-5.041-9.978l-3.594,3.509v6.469h-9.75V0z"/>
	<path d="M136.805,17.531l-9.117-0.961c0.344-1.594,0.84-2.848,1.488-3.762s1.582-1.707,2.801-2.379
		c0.875-0.484,2.078-0.859,3.609-1.125s3.188-0.398,4.969-0.398c2.859,0,5.156,0.16,6.891,0.48s3.18,0.988,4.336,2.004
		c0.813,0.703,1.453,1.699,1.922,2.988s0.703,2.52,0.703,3.691v10.992c0,1.172,0.074,2.09,0.223,2.754s0.473,1.512,0.973,2.543
		h-8.953c-0.359-0.641-0.594-1.129-0.703-1.465s-0.219-0.863-0.328-1.582c-1.25,1.203-2.492,2.063-3.727,2.578
		c-1.688,0.688-3.648,1.031-5.883,1.031c-2.969,0-5.223-0.688-6.762-2.063s-2.309-3.07-2.309-5.086c0-1.891,0.555-3.445,1.664-4.664
		s3.156-2.125,6.141-2.719c3.578-0.719,5.898-1.223,6.961-1.512s2.188-0.668,3.375-1.137c0-1.172-0.242-1.992-0.727-2.461
		s-1.336-0.703-2.555-0.703c-1.563,0-2.734,0.25-3.516,0.75C137.672,15.719,137.18,16.453,136.805,17.531z M145.078,22.547
		c-1.313,0.469-2.68,0.883-4.102,1.242c-1.938,0.516-3.164,1.023-3.68,1.523c-0.531,0.516-0.797,1.102-0.797,1.758
		c0,0.75,0.262,1.363,0.785,1.84s1.293,0.715,2.309,0.715c1.063,0,2.051-0.258,2.965-0.773s1.563-1.145,1.945-1.887
		s0.574-1.707,0.574-2.895V22.547z"/>
	<path d="M160.477,0h9.539v6.492h-9.539V0z M160.477,9.469h9.539v24.891h-9.539V9.469z"/>
</g>
</svg>
